<svg width="1600" height="8396" fill="none" xmlns="http://www.w3.org/2000/svg"><defs><filter id="b" x="-777.791" y="-745.791" width="4895.539" height="2503.021" filterUnits="userSpaceOnUse" color-interpolation-filters="sRGB"><feFlood flood-opacity="0" result="BackgroundImageFix"/><feBlend in="SourceGraphic" in2="BackgroundImageFix" result="shape"/><feGaussianBlur stdDeviation="160.597" result="effect_layerBlur_1"/></filter><filter id="d" x="-1780.057" y="-446.68" width="3611.358" height="2749.189" filterUnits="userSpaceOnUse" color-interpolation-filters="sRGB"><feFlood flood-opacity="0" result="BackgroundImageFix"/><feBlend in="SourceGraphic" in2="BackgroundImageFix" result="shape"/><feGaussianBlur stdDeviation="148.976" result="effect_layerBlur_1"/></filter><filter id="f" x="-2098.573" y="-268.425" width="4716.195" height="3454.33" filterUnits="userSpaceOnUse" color-interpolation-filters="sRGB"><feFlood flood-opacity="0" result="BackgroundImageFix"/><feBlend in="SourceGraphic" in2="BackgroundImageFix" result="shape"/><feGaussianBlur stdDeviation="123.04" result="effect_layerBlur_1"/></filter><filter id="h" x="-2543.728" y="-706.339" width="4716.079" height="3454.015" filterUnits="userSpaceOnUse" color-interpolation-filters="sRGB"><feFlood flood-opacity="0" result="BackgroundImageFix"/><feBlend in="SourceGraphic" in2="BackgroundImageFix" result="shape"/><feGaussianBlur stdDeviation="123.04" result="effect_layerBlur_1"/></filter><filter id="j" x="2676.525" y="-1387.256" width="4280.036" height="3258.592" filterUnits="userSpaceOnUse" color-interpolation-filters="sRGB"><feFlood flood-opacity="0" result="BackgroundImageFix"/><feBlend in="SourceGraphic" in2="BackgroundImageFix" result="shape"/><feGaussianBlur stdDeviation="176.582" result="effect_layerBlur_1"/></filter><filter id="l" x="1952.048" y="-1667.496" width="5431.127" height="3978.017" filterUnits="userSpaceOnUse" color-interpolation-filters="sRGB"><feFlood flood-opacity="0" result="BackgroundImageFix"/><feBlend in="SourceGraphic" in2="BackgroundImageFix" result="shape"/><feGaussianBlur stdDeviation="141.693" result="effect_layerBlur_1"/></filter><filter id="n" x="-2416.92" y="779.21" width="4713.766" height="2639.297" filterUnits="userSpaceOnUse" color-interpolation-filters="sRGB"><feFlood flood-opacity="0" result="BackgroundImageFix"/><feBlend in="SourceGraphic" in2="BackgroundImageFix" result="shape"/><feGaussianBlur stdDeviation="160.597" result="effect_layerBlur_1"/></filter><filter id="p" x="-294.842" y="-348.462" width="3526.532" height="3327.163" filterUnits="userSpaceOnUse" color-interpolation-filters="sRGB"><feFlood flood-opacity="0" result="BackgroundImageFix"/><feBlend in="SourceGraphic" in2="BackgroundImageFix" result="shape"/><feGaussianBlur stdDeviation="148.976" result="effect_layerBlur_1"/></filter><filter id="r" x="-1114.421" y="-1497.169" width="4591.641" height="4299.813" filterUnits="userSpaceOnUse" color-interpolation-filters="sRGB"><feFlood flood-opacity="0" result="BackgroundImageFix"/><feBlend in="SourceGraphic" in2="BackgroundImageFix" result="shape"/><feGaussianBlur stdDeviation="123.04" result="effect_layerBlur_1"/></filter><filter id="t" x="-634.837" y="-985.872" width="4590.722" height="4299.337" filterUnits="userSpaceOnUse" color-interpolation-filters="sRGB"><feFlood flood-opacity="0" result="BackgroundImageFix"/><feBlend in="SourceGraphic" in2="BackgroundImageFix" result="shape"/><feGaussianBlur stdDeviation="123.04" result="effect_layerBlur_1"/></filter><filter id="v" x="-5138.531" y="914.404" width="4179.173" height="3942.921" filterUnits="userSpaceOnUse" color-interpolation-filters="sRGB"><feFlood flood-opacity="0" result="BackgroundImageFix"/><feBlend in="SourceGraphic" in2="BackgroundImageFix" result="shape"/><feGaussianBlur stdDeviation="176.582" result="effect_layerBlur_1"/></filter><filter id="x" x="-5559.194" y="285.084" width="5287.65" height="4951.587" filterUnits="userSpaceOnUse" color-interpolation-filters="sRGB"><feFlood flood-opacity="0" result="BackgroundImageFix"/><feBlend in="SourceGraphic" in2="BackgroundImageFix" result="shape"/><feGaussianBlur stdDeviation="141.693" result="effect_layerBlur_1"/></filter><filter id="z" x="-1148.791" y="2287.209" width="4759.832" height="2521.11" filterUnits="userSpaceOnUse" color-interpolation-filters="sRGB"><feFlood flood-opacity="0" result="BackgroundImageFix"/><feBlend in="SourceGraphic" in2="BackgroundImageFix" result="shape"/><feGaussianBlur stdDeviation="160.597" result="effect_layerBlur_1"/></filter><filter id="B" x="-2113.645" y="2592.21" width="3513.644" height="2794.4" filterUnits="userSpaceOnUse" color-interpolation-filters="sRGB"><feFlood flood-opacity="0" result="BackgroundImageFix"/><feBlend in="SourceGraphic" in2="BackgroundImageFix" result="shape"/><feGaussianBlur stdDeviation="148.976" result="effect_layerBlur_1"/></filter><filter id="D" x="-2420.746" y="2771.917" width="4573.176" height="3520.496" filterUnits="userSpaceOnUse" color-interpolation-filters="sRGB"><feFlood flood-opacity="0" result="BackgroundImageFix"/><feBlend in="SourceGraphic" in2="BackgroundImageFix" result="shape"/><feGaussianBlur stdDeviation="123.04" result="effect_layerBlur_1"/></filter><filter id="F" x="-2847.615" y="2325.518" width="4573.045" height="3520.199" filterUnits="userSpaceOnUse" color-interpolation-filters="sRGB"><feFlood flood-opacity="0" result="BackgroundImageFix"/><feBlend in="SourceGraphic" in2="BackgroundImageFix" result="shape"/><feGaussianBlur stdDeviation="123.04" result="effect_layerBlur_1"/></filter><filter id="H" x="2184.66" y="1604.337" width="4164.256" height="3312.142" filterUnits="userSpaceOnUse" color-interpolation-filters="sRGB"><feFlood flood-opacity="0" result="BackgroundImageFix"/><feBlend in="SourceGraphic" in2="BackgroundImageFix" result="shape"/><feGaussianBlur stdDeviation="176.582" result="effect_layerBlur_1"/></filter><filter id="J" x="1489.528" y="1315.557" width="5266.43" height="4054.21" filterUnits="userSpaceOnUse" color-interpolation-filters="sRGB"><feFlood flood-opacity="0" result="BackgroundImageFix"/><feBlend in="SourceGraphic" in2="BackgroundImageFix" result="shape"/><feGaussianBlur stdDeviation="141.693" result="effect_layerBlur_1"/></filter><filter id="L" x="-2160.583" y="3298.406" width="4853.283" height="3935.091" filterUnits="userSpaceOnUse" color-interpolation-filters="sRGB"><feFlood flood-opacity="0" result="BackgroundImageFix"/><feBlend in="SourceGraphic" in2="BackgroundImageFix" result="shape"/><feGaussianBlur stdDeviation="160.597" result="effect_layerBlur_1"/></filter><filter id="N" x="-346.851" y="1924.508" width="3401.179" height="3994.272" filterUnits="userSpaceOnUse" color-interpolation-filters="sRGB"><feFlood flood-opacity="0" result="BackgroundImageFix"/><feBlend in="SourceGraphic" in2="BackgroundImageFix" result="shape"/><feGaussianBlur stdDeviation="148.976" result="effect_layerBlur_1"/></filter><filter id="P" x="-1343.984" y="527.018" width="4408.417" height="5275.966" filterUnits="userSpaceOnUse" color-interpolation-filters="sRGB"><feFlood flood-opacity="0" result="BackgroundImageFix"/><feBlend in="SourceGraphic" in2="BackgroundImageFix" result="shape"/><feGaussianBlur stdDeviation="123.04" result="effect_layerBlur_1"/></filter><filter id="R" x="-732.894" y="1049.314" width="4408.127" height="5275.182" filterUnits="userSpaceOnUse" color-interpolation-filters="sRGB"><feFlood flood-opacity="0" result="BackgroundImageFix"/><feBlend in="SourceGraphic" in2="BackgroundImageFix" result="shape"/><feGaussianBlur stdDeviation="123.04" result="effect_layerBlur_1"/></filter><filter id="T" x="-4143.426" y="4598.066" width="4032.222" height="4734.572" filterUnits="userSpaceOnUse" color-interpolation-filters="sRGB"><feFlood flood-opacity="0" result="BackgroundImageFix"/><feBlend in="SourceGraphic" in2="BackgroundImageFix" result="shape"/><feGaussianBlur stdDeviation="176.582" result="effect_layerBlur_1"/></filter><filter id="V" x="-4590.844" y="3739.573" width="5076.793" height="6075.758" filterUnits="userSpaceOnUse" color-interpolation-filters="sRGB"><feFlood flood-opacity="0" result="BackgroundImageFix"/><feBlend in="SourceGraphic" in2="BackgroundImageFix" result="shape"/><feGaussianBlur stdDeviation="141.693" result="effect_layerBlur_1"/></filter><filter id="X" x="-3008.792" y="4393.209" width="4467.765" height="2634.662" filterUnits="userSpaceOnUse" color-interpolation-filters="sRGB"><feFlood flood-opacity="0" result="BackgroundImageFix"/><feBlend in="SourceGraphic" in2="BackgroundImageFix" result="shape"/><feGaussianBlur stdDeviation="160.597" result="effect_layerBlur_1"/></filter><filter id="Z" x="-957.615" y="3690.097" width="3299.271" height="3004.911" filterUnits="userSpaceOnUse" color-interpolation-filters="sRGB"><feFlood flood-opacity="0" result="BackgroundImageFix"/><feBlend in="SourceGraphic" in2="BackgroundImageFix" result="shape"/><feGaussianBlur stdDeviation="148.976" result="effect_layerBlur_1"/></filter><filter id="ab" x="-1632.641" y="2678.554" width="4259.426" height="3828.604" filterUnits="userSpaceOnUse" color-interpolation-filters="sRGB"><feFlood flood-opacity="0" result="BackgroundImageFix"/><feBlend in="SourceGraphic" in2="BackgroundImageFix" result="shape"/><feGaussianBlur stdDeviation="123.04" result="effect_layerBlur_1"/></filter><filter id="ad" x="-1247.783" y="3167.996" width="4258.665" height="3828.14" filterUnits="userSpaceOnUse" color-interpolation-filters="sRGB"><feFlood flood-opacity="0" result="BackgroundImageFix"/><feBlend in="SourceGraphic" in2="BackgroundImageFix" result="shape"/><feGaussianBlur stdDeviation="123.04" result="effect_layerBlur_1"/></filter><filter id="af" x="-5524.463" y="4300.766" width="3910.278" height="3561.54" filterUnits="userSpaceOnUse" color-interpolation-filters="sRGB"><feFlood flood-opacity="0" result="BackgroundImageFix"/><feBlend in="SourceGraphic" in2="BackgroundImageFix" result="shape"/><feGaussianBlur stdDeviation="176.582" result="effect_layerBlur_1"/></filter><filter id="ah" x="-5888.071" y="3783.129" width="4905.129" height="4409.013" filterUnits="userSpaceOnUse" color-interpolation-filters="sRGB"><feFlood flood-opacity="0" result="BackgroundImageFix"/><feBlend in="SourceGraphic" in2="BackgroundImageFix" result="shape"/><feGaussianBlur stdDeviation="141.693" result="effect_layerBlur_1"/></filter><filter id="aj" x="-2658.152" y="5535.824" width="5542.877" height="3802.764" filterUnits="userSpaceOnUse" color-interpolation-filters="sRGB"><feFlood flood-opacity="0" result="BackgroundImageFix"/><feBlend in="SourceGraphic" in2="BackgroundImageFix" result="shape"/><feGaussianBlur stdDeviation="160.597" result="effect_layerBlur_1"/></filter><filter id="al" x="56.149" y="4395.189" width="3963.271" height="4410.122" filterUnits="userSpaceOnUse" color-interpolation-filters="sRGB"><feFlood flood-opacity="0" result="BackgroundImageFix"/><feBlend in="SourceGraphic" in2="BackgroundImageFix" result="shape"/><feGaussianBlur stdDeviation="148.976" result="effect_layerBlur_1"/></filter><filter id="an" x="-763.912" y="2655.423" width="5231.735" height="5885.75" filterUnits="userSpaceOnUse" color-interpolation-filters="sRGB"><feFlood flood-opacity="0" result="BackgroundImageFix"/><feBlend in="SourceGraphic" in2="BackgroundImageFix" result="shape"/><feGaussianBlur stdDeviation="123.04" result="effect_layerBlur_1"/></filter><filter id="ap" x="-324.572" y="3477.111" width="5230.862" height="5884.967" filterUnits="userSpaceOnUse" color-interpolation-filters="sRGB"><feFlood flood-opacity="0" result="BackgroundImageFix"/><feBlend in="SourceGraphic" in2="BackgroundImageFix" result="shape"/><feGaussianBlur stdDeviation="123.04" result="effect_layerBlur_1"/></filter><filter id="ar" x="-3927.262" y="5162.79" width="4697.777" height="5227.122" filterUnits="userSpaceOnUse" color-interpolation-filters="sRGB"><feFlood flood-opacity="0" result="BackgroundImageFix"/><feBlend in="SourceGraphic" in2="BackgroundImageFix" result="shape"/><feGaussianBlur stdDeviation="176.582" result="effect_layerBlur_1"/></filter><filter id="at" x="-4445.898" y="4535.75" width="5068.333" height="6627.764" filterUnits="userSpaceOnUse" color-interpolation-filters="sRGB"><feFlood flood-opacity="0" result="BackgroundImageFix"/><feBlend in="SourceGraphic" in2="BackgroundImageFix" result="shape"/><feGaussianBlur stdDeviation="141.693" result="effect_layerBlur_1"/></filter><radialGradient gradientTransform="matrix(0 1001.12 -1305.15 0 0 0)" cx="0" cy="0" r="1" id="e" gradientUnits="userSpaceOnUse"><stop stop-color="#61FFD0"/><stop offset=".196" stop-color="#8161FF"/><stop offset=".451" stop-color="#FD95FF"/><stop offset=".649" stop-color="#95C0FF"/><stop offset=".863" stop-color="#95D9FF"/></radialGradient><radialGradient gradientTransform="matrix(0 1500.08 -1883.36 0 0 0)" cx="0" cy="0" r="1" id="g" gradientUnits="userSpaceOnUse"><stop stop-color="#D795FF"/><stop offset=".196" stop-color="#8161FF"/><stop offset=".451" stop-color="#9E95FF"/><stop offset=".649" stop-color="#95C0FF"/><stop offset=".863" stop-color="#95D9FF"/></radialGradient><radialGradient gradientTransform="matrix(0 1946.31 -1417.45 0 0 0)" cx="0" cy="0" r="1" id="i" gradientUnits="userSpaceOnUse"><stop stop-color="#7CF280" stop-opacity=".141"/><stop offset=".196" stop-color="#E9DEFF"/><stop offset=".451" stop-color="#1AC9C9"/><stop offset=".649" stop-color="#3261BE"/><stop offset=".863" stop-color="#E22089"/></radialGradient><radialGradient gradientTransform="matrix(0 1094.91 -1613.22 0 0 0)" cx="0" cy="0" r="1" id="k" gradientUnits="userSpaceOnUse"><stop stop-color="#61FFD0"/><stop offset=".196" stop-color="#8161FF"/><stop offset=".451" stop-color="#FD95FF"/><stop offset=".649" stop-color="#95C0FF"/><stop offset=".863" stop-color="#95D9FF"/></radialGradient><radialGradient gradientTransform="matrix(0 2154.91 -1744.89 0 0 0)" cx="0" cy="0" r="1" id="m" gradientUnits="userSpaceOnUse"><stop stop-color="#61FFD0"/><stop offset=".196" stop-color="#8161FF"/><stop offset=".451" stop-color="#FD95FF"/><stop offset=".649" stop-color="#95C0FF"/><stop offset=".863" stop-color="#95D9FF"/></radialGradient><radialGradient gradientTransform="matrix(0 1231.72 -1301.59 0 0 0)" cx="0" cy="0" r="1" id="q" gradientUnits="userSpaceOnUse"><stop stop-color="#61AAFF"/><stop offset=".196" stop-color="#6EFF61"/><stop offset=".451" stop-color="#B195FF"/><stop offset=".649" stop-color="#95FFC0"/><stop offset=".863" stop-color="#95D9FF"/></radialGradient><radialGradient gradientTransform="matrix(0 1810.14 -1898.42 0 0 0)" cx="0" cy="0" r="1" id="s" gradientUnits="userSpaceOnUse"><stop stop-color="#61AAFF"/><stop offset=".196"/><stop offset=".451" stop-color="#B795FF"/><stop offset=".649" stop-color="#95FFC0"/><stop offset=".863" stop-color="#95D9FF"/></radialGradient><radialGradient gradientTransform="matrix(0 1914.38 -1793.25 0 0 0)" cx="0" cy="0" r="1" id="u" gradientUnits="userSpaceOnUse"><stop stop-color="#144646"/><stop offset=".196" stop-color="#D795FF"/><stop offset=".451" stop-color="#B01AC9"/><stop offset=".649" stop-color="#232C4E"/><stop offset=".863" stop-color="#A819FF"/></radialGradient><radialGradient gradientTransform="matrix(0 1441.75 -1559.81 0 0 0)" cx="0" cy="0" r="1" id="w" gradientUnits="userSpaceOnUse"><stop stop-color="#61AAFF"/><stop offset=".196" stop-color="#6EFF61"/><stop offset=".451" stop-color="#B195FF"/><stop offset=".649" stop-color="#95FFC0"/><stop offset=".863" stop-color="#95D9FF"/></radialGradient><radialGradient gradientTransform="matrix(0 2182.73 -2088.22 0 0 0)" cx="0" cy="0" r="1" id="y" gradientUnits="userSpaceOnUse"><stop stop-color="#61AAFF"/><stop offset=".196" stop-color="#6EFF61"/><stop offset=".451" stop-color="#B195FF"/><stop offset=".649" stop-color="#95FFC0"/><stop offset=".863" stop-color="#95D9FF"/></radialGradient><radialGradient gradientTransform="matrix(0 1009.84 -1264.12 0 0 0)" cx="0" cy="0" r="1" id="C" gradientUnits="userSpaceOnUse"><stop stop-color="#61FFD0"/><stop offset=".196" stop-color="#8161FF"/><stop offset=".451" stop-color="#FD95FF"/><stop offset=".649" stop-color="#95C0FF"/><stop offset=".863" stop-color="#95D9FF"/></radialGradient><radialGradient gradientTransform="matrix(0 1506.58 -1827.34 0 0 0)" cx="0" cy="0" r="1" id="E" gradientUnits="userSpaceOnUse"><stop stop-color="#61FFD0"/><stop offset=".196" stop-color="#8161FF"/><stop offset=".451" stop-color="#FD95FF"/><stop offset=".649" stop-color="#95C0FF"/><stop offset=".863" stop-color="#95D9FF"/></radialGradient><radialGradient gradientTransform="matrix(0 1880.95 -1439.09 0 0 0)" cx="0" cy="0" r="1" id="G" gradientUnits="userSpaceOnUse"><stop stop-color="#DBF27C" stop-opacity=".141"/><stop offset=".196" stop-color="#61FF8D"/><stop offset=".451" stop-color="#1AC9C9"/><stop offset=".649" stop-color="#9A32BE"/><stop offset=".863" stop-color="#E22089"/></radialGradient><radialGradient gradientTransform="matrix(0 1122.57 -1554.88 0 0 0)" cx="0" cy="0" r="1" id="I" gradientUnits="userSpaceOnUse"><stop stop-color="#61FFD0"/><stop offset=".196" stop-color="#8161FF"/><stop offset=".451" stop-color="#FD95FF"/><stop offset=".649" stop-color="#95C0FF"/><stop offset=".863" stop-color="#95D9FF"/></radialGradient><radialGradient gradientTransform="matrix(0 2092.5 -1749.28 0 0 0)" cx="0" cy="0" r="1" id="K" gradientUnits="userSpaceOnUse"><stop stop-color="#61FFD0"/><stop offset=".196" stop-color="#8161FF"/><stop offset=".451" stop-color="#FD95FF"/><stop offset=".649" stop-color="#95C0FF"/><stop offset=".863" stop-color="#95D9FF"/></radialGradient><radialGradient gradientTransform="matrix(0 1529.05 -1279.08 0 0 0)" cx="0" cy="0" r="1" id="O" gradientUnits="userSpaceOnUse"><stop stop-color="#61AAFF"/><stop offset=".196" stop-color="#6EFF61"/><stop offset=".451" stop-color="#B195FF"/><stop offset=".649" stop-color="#95FFC0"/><stop offset=".863" stop-color="#95D9FF"/></radialGradient><radialGradient gradientTransform="rotate(139.872) scale(3243.48 2062.47)" cx="0" cy="0" r="1" id="Q" gradientUnits="userSpaceOnUse"><stop stop-color="#61AAFF"/><stop offset=".196" stop-color="#FD95FF"/><stop offset=".451" stop-color="#B195FF"/><stop offset=".649" stop-color="#95FFC0"/><stop offset=".863" stop-color="#95D9FF"/></radialGradient><radialGradient gradientTransform="matrix(0 1834.94 -2268.91 0 0 0)" cx="0" cy="0" r="1" id="S" gradientUnits="userSpaceOnUse"><stop stop-color="#144646"/><stop offset=".196" stop-color="#D795FF"/><stop offset=".451" stop-color="#B01AC9"/><stop offset=".649" stop-color="#232C4E"/><stop offset=".863" stop-color="#A819FF"/></radialGradient><radialGradient gradientTransform="matrix(0 1869.29 -1445.36 0 0 0)" cx="0" cy="0" r="1" id="U" gradientUnits="userSpaceOnUse"><stop stop-color="#61AAFF"/><stop offset=".196" stop-color="#6EFF61"/><stop offset=".451" stop-color="#B195FF"/><stop offset=".649" stop-color="#95FFC0"/><stop offset=".863" stop-color="#95D9FF"/></radialGradient><radialGradient gradientTransform="matrix(0 2201.33 -2539.02 0 0 0)" cx="0" cy="0" r="1" id="W" gradientUnits="userSpaceOnUse"><stop stop-color="#61AAFF"/><stop offset=".196" stop-color="#6EFF61"/><stop offset=".451" stop-color="#B195FF"/><stop offset=".649" stop-color="#95FFC0"/><stop offset=".863" stop-color="#95D9FF"/></radialGradient><radialGradient gradientTransform="matrix(0 1077.76 -1182.39 0 0 0)" cx="0" cy="0" r="1" id="aa" gradientUnits="userSpaceOnUse"><stop stop-color="#61AAFF"/><stop offset=".196" stop-color="#6EFF61"/><stop offset=".451" stop-color="#B195FF"/><stop offset=".649" stop-color="#95FFC0"/><stop offset=".863" stop-color="#95D9FF"/></radialGradient><radialGradient gradientTransform="matrix(0 1588.55 -1720.71 0 0 0)" cx="0" cy="0" r="1" id="ac" gradientUnits="userSpaceOnUse"><stop stop-color="#61AAFF"/><stop offset=".196" stop-color="#6EFF61"/><stop offset=".451" stop-color="#B195FF"/><stop offset=".649" stop-color="#95FFC0"/><stop offset=".863" stop-color="#95D9FF"/></radialGradient><radialGradient gradientTransform="matrix(0 1744.18 -1562.75 0 0 0)" cx="0" cy="0" r="1" id="ae" gradientUnits="userSpaceOnUse"><stop stop-color="#144646"/><stop offset=".196" stop-color="#D795FF"/><stop offset=".451" stop-color="#B01AC9"/><stop offset=".649" stop-color="#232C4E"/><stop offset=".863" stop-color="#A819FF"/></radialGradient><radialGradient gradientTransform="matrix(0 1249.54 -1426.45 0 0 0)" cx="0" cy="0" r="1" id="ag" gradientUnits="userSpaceOnUse"><stop stop-color="#61AAFF"/><stop offset=".196" stop-color="#6EFF61"/><stop offset=".451" stop-color="#B195FF"/><stop offset=".649" stop-color="#95FFC0"/><stop offset=".863" stop-color="#95D9FF"/></radialGradient><radialGradient gradientTransform="matrix(0 1976.43 -1834.94 0 0 0)" cx="0" cy="0" r="1" id="ai" gradientUnits="userSpaceOnUse"><stop stop-color="#61AAFF"/><stop offset=".196" stop-color="#6EFF61"/><stop offset=".451" stop-color="#B195FF"/><stop offset=".649" stop-color="#95FFC0"/><stop offset=".863" stop-color="#95D9FF"/></radialGradient><radialGradient gradientTransform="matrix(0 1728.84 -1567.06 0 0 0)" cx="0" cy="0" r="1" id="am" gradientUnits="userSpaceOnUse"><stop stop-color="#61AAFF"/><stop offset=".196" stop-color="#6EFF61"/><stop offset=".451" stop-color="#B195FF"/><stop offset=".649" stop-color="#95FFC0"/><stop offset=".863" stop-color="#95D9FF"/></radialGradient><radialGradient gradientTransform="matrix(0 2515.15 -2310.8 0 0 0)" cx="0" cy="0" r="1" id="ao" gradientUnits="userSpaceOnUse"><stop stop-color="#61AAFF"/><stop offset=".196" stop-color="#D795FF"/><stop offset=".451" stop-color="#B195FF"/><stop offset=".649" stop-color="#95FFC0"/><stop offset=".863" stop-color="#95D9FF"/></radialGradient><radialGradient gradientTransform="matrix(0 2270.78 -2551.34 0 0 0)" cx="0" cy="0" r="1" id="aq" gradientUnits="userSpaceOnUse"><stop stop-color="#144646"/><stop offset=".196" stop-color="#D795FF"/><stop offset=".451" stop-color="#B01AC9"/><stop offset=".649" stop-color="#232C4E"/><stop offset=".863" stop-color="#A819FF"/></radialGradient><radialGradient gradientTransform="matrix(0 2087.67 -1814.09 0 0 0)" cx="0" cy="0" r="1" id="as" gradientUnits="userSpaceOnUse"><stop stop-color="#61AAFF"/><stop offset=".196" stop-color="#D795FF"/><stop offset=".451" stop-color="#B195FF"/><stop offset=".649" stop-color="#CA95FF"/><stop offset=".863" stop-color="#95D9FF"/></radialGradient><radialGradient gradientTransform="matrix(0 2107.9 -2888.52 0 0 0)" cx="0" cy="0" r="1" id="au" gradientUnits="userSpaceOnUse"><stop stop-color="#61AAFF"/><stop offset=".196" stop-color="#D795FF"/><stop offset=".451" stop-color="#B195FF"/><stop offset=".649" stop-color="#CA95FF"/><stop offset=".863" stop-color="#95D9FF"/></radialGradient><clipPath id="c"><rect rx="-.756" width="1201.991" height="3838.822" transform="scale(-1 1) rotate(84.911 238.105 -28.616)" fill="#fff" fill-opacity="0"/></clipPath><clipPath id="o"><rect rx="-.756" width="1583.934" height="3711.03" transform="scale(-1 1) rotate(-88.599 550.686 2353.74)" fill="#fff" fill-opacity="0"/></clipPath><clipPath id="A"><rect rx="-.756" width="1232.528" height="3699.857" transform="scale(-1 1) rotate(84.911 -1235.318 1689.161)" fill="#fff" fill-opacity="0"/></clipPath><clipPath id="M"><rect rx="-.756" width="2054.609" height="3437.372" transform="scale(-1 1) rotate(-73.004 2777.366 4367.965)" fill="#fff" fill-opacity="0"/></clipPath><clipPath id="Y"><rect rx="-.756" width="1372.49" height="3393.743" transform="scale(1 -1) rotate(84.888 4007.099 -2805.691)" fill="#fff" fill-opacity="0"/></clipPath><clipPath id="ak"><rect rx="-.756" width="2294.658" height="4315.353" transform="scale(1 -1) rotate(82.512 6101.239 -3229.195)" fill="#fff" fill-opacity="0"/></clipPath><clipPath id="a"><rect rx="-.5" width="1599" height="8395" transform="translate(.5 .5)" fill="#fff" fill-opacity="0"/></clipPath></defs><rect rx="-.5" width="1599" height="8395" transform="translate(.5 .5)" fill="#000"/><g clip-path="url(#a)"><g filter="url(#b)"><rect rx="-.756" width="1201.991" height="3838.822" transform="scale(-1 1) rotate(84.911 238.105 -28.616)" fill="#000"/><g clip-path="url(#c)"><g filter="url(#d)"><ellipse rx="1305.151" ry="1001.122" transform="matrix(-.93374 -.35795 -.59951 .80036 25.623 927.914)" fill="url(#e)"/></g><g filter="url(#f)" style="mix-blend-mode:multiply"><ellipse rx="1883.359" ry="1500.077" transform="matrix(-.97232 .23367 .51664 .8562 259.524 1458.74)" fill="url(#g)"/></g><g filter="url(#h)" style="mix-blend-mode:overlay"><ellipse rx="1417.447" ry="1946.307" transform="matrix(.32788 .94472 .99336 -.11503 -185.688 1020.67)" fill="url(#i)"/></g><g filter="url(#j)"><ellipse rx="1613.218" ry="1094.91" transform="matrix(-.99406 -.10879 .13229 -.99121 4816.54 242.04)" fill="url(#k)"/></g><g filter="url(#l)" style="mix-blend-mode:overlay"><ellipse rx="1744.894" ry="2154.909" transform="matrix(-.54294 -.83977 .96745 -.25307 4667.61 321.513)" fill="url(#m)"/></g></g></g><g filter="url(#n)"><g clip-path="url(#o)"><g filter="url(#p)"><ellipse rx="1301.592" ry="1231.717" transform="matrix(.9409 .33866 .39104 -.92038 1468.42 1315.12)" fill="url(#q)"/></g><g filter="url(#r)" style="mix-blend-mode:multiply"><ellipse rx="1898.419" ry="1810.14" transform="matrix(.89848 -.439 -.4945 -.86917 1181.4 652.738)" fill="url(#s)"/></g><g filter="url(#t)" style="mix-blend-mode:overlay"><path d="M1056.49-524.57c473.29-146.08 964.43-112.9 1386.96 59.61 455.53 185.28 793.59 515.21 979.68 905.97 201.12 420.76 210.36 875.93 63.27 1281.81-157.84 437.51-482.22 781.29-886.03 991.29-434.75 226.81-924.11 280.49-1374.71 185.44C740 2797.76 340.04 2533.44 76.89 2182.75c-284.09-377.47-386.73-822.4-325.62-1246.42C-183.58 479.4 64.47 85.18 417.74-192.09l1242.57 1356.06-603.82-1688.54Z" fill="url(#u)" fill-rule="evenodd"/></g><g filter="url(#v)"><ellipse rx="1559.808" ry="1441.75" transform="matrix(1 .00305 -.00774 .99997 -3048.95 2885.86)" fill="url(#w)"/></g><g filter="url(#x)" style="mix-blend-mode:overlay"><ellipse rx="2088.22" ry="2182.735" transform="matrix(.51809 .85533 -.88726 .46127 -2915.37 2760.88)" fill="url(#y)"/></g></g></g><g filter="url(#z)"><rect rx="-.756" width="1232.528" height="3699.857" transform="scale(-1 1) rotate(84.911 -1235.318 1689.161)" fill="#000"/><g clip-path="url(#A)"><g filter="url(#B)"><ellipse rx="1264.119" ry="1009.84" transform="matrix(-.92762 -.37353 -.57743 .81644 -356.822 3989.41)" fill="url(#C)"/></g><g filter="url(#D)" style="mix-blend-mode:multiply"><ellipse rx="1827.343" ry="1506.576" transform="matrix(-.96765 .25228 .49141 .87093 -134.158 4532.16)" fill="url(#E)"/></g><g filter="url(#F)" style="mix-blend-mode:overlay"><ellipse rx="1439.087" ry="1880.952" transform="matrix(.30636 .95191 .99183 -.12758 -561.092 4085.62)" fill="url(#G)"/></g><g filter="url(#H)"><ellipse rx="1554.885" ry="1122.566" transform="matrix(-.99392 -.11007 .12968 -.99156 4266.79 3260.41)" fill="url(#I)"/></g><g filter="url(#J)" style="mix-blend-mode:overlay"><ellipse rx="1749.279" ry="2092.503" transform="matrix(-.51768 -.85557 .96215 -.27252 4122.74 3342.66)" fill="url(#K)"/></g></g></g><g filter="url(#L)"><rect rx="-.756" width="2054.609" height="3437.372" transform="scale(-1 1) rotate(-73.004 2777.366 4367.965)" fill="#000"/><g clip-path="url(#M)"><g filter="url(#N)"><ellipse rx="1279.082" ry="1529.051" transform="matrix(.97991 .19943 .01696 -.99986 1353.74 3921.64)" fill="url(#O)"/></g><g filter="url(#P)" style="mix-blend-mode:multiply"><ellipse rx="1899.568" ry="2215.085" transform="matrix(.64674 -.7627 -.6154 -.78822 860.225 3165)" fill="url(#Q)"/></g><g filter="url(#R)" style="mix-blend-mode:overlay"><path d="M327.79 1727.54c371.31-295.85 822.65-372.54 1262.4-259.07 473.82 121.46 894.21 451.46 1200.36 893.81 330.32 476.12 501.22 1041.26 514.62 1582.54 15.09 583.27-152.34 1089.76-438.65 1448.58-307.97 387.21-726.7 571.75-1163.88 561.58-470.95-10.15-923.3-243.49-1284.08-617.37-389.09-402.23-639.9-932.15-736.74-1475.36-104.96-585.21-23.86-1136.23 193.19-1566.75l1596.43 1391.63L327.79 1727.54Z" fill="url(#S)" fill-rule="evenodd"/></g><g filter="url(#T)"><ellipse rx="1445.356" ry="1869.291" transform="matrix(.96686 -.2553 .27024 .9628 -2127.31 6965.35)" fill="url(#U)"/></g><g filter="url(#V)" style="mix-blend-mode:overlay"><ellipse rx="2539.016" ry="2201.332" transform="matrix(.63265 .77444 -.62382 .78157 -2052.45 6777.45)" fill="url(#W)"/></g></g></g><g filter="url(#X)"><rect rx="-.756" width="1372.49" height="3393.743" transform="scale(1 -1) rotate(84.888 4007.099 -2805.691)" fill="#000"/><g clip-path="url(#Y)"><g filter="url(#Z)"><ellipse rx="1182.39" ry="1077.761" transform="matrix(.90416 .4272 .51073 -.85974 692.021 5192.55)" fill="url(#aa)"/></g><g filter="url(#ab)" style="mix-blend-mode:multiply"><ellipse rx="1720.712" ry="1588.549" transform="matrix(.94899 -.31532 -.41355 -.91048 497.073 4592.86)" fill="url(#ac)"/></g><g filter="url(#ad)" style="mix-blend-mode:overlay"><path d="M500.66 3566.45c444.63-77.23 887.65 1.71 1254.46 193.57 395.51 206.24 669.92 524.96 800.16 880.47 140.91 382.87 104.04 775.69-70 1110.04-186.95 360.48-515.92 623.18-903.77 762.56-417.62 150.68-867.68 146.71-1267.71 18.66-431.2-137.45-768.37-406.04-972.62-734.95-220.62-354.12-269.63-747.7-171.93-1106.49 104.65-386.69 369.28-700.66 717.88-903.13L881.42 5082.1 500.66 3566.45Z" fill="url(#ae)" fill-rule="evenodd"/></g><g filter="url(#af)"><ellipse rx="1426.447" ry="1249.544" transform="matrix(.99336 .11503 -.12288 .99242 -3569.32 6081.54)" fill="url(#ag)"/></g><g filter="url(#ah)" style="mix-blend-mode:overlay"><ellipse rx="1834.941" ry="1976.43" transform="matrix(.43897 .8985 -.94112 .33808 -3435.51 5987.63)" fill="url(#ai)"/></g><path d="M-1493.17 6048.36c-.41-.33-.91-.55-1.43-.65-.53-.11-1.08-.09-1.59.06l-16.77 4.19c-.4.1-.82.13-1.23.08l-10.29-1.16c-.86-.1-1.73.14-2.41.65a3.04 3.04 0 0 0-1.21 2.07l-.02.25-3.26-.37-.86 7.42 3.26.36-.04.32c-.07.81.19 1.62.74 2.25a3.38 3.38 0 0 0 2.17 1.14l3 8.3c.21.56.57 1.05 1.06 1.42.48.38 1.07.61 1.68.69l1.64.18c.86.09 1.72-.14 2.4-.65.67-.51 1.1-1.26 1.19-2.07l.73-6.25 15.15 7.79a3.387 3.387 0 0 0 3.08.02c.46-.22.86-.55 1.16-.95.3-.4.49-.87.56-1.36l2.43-21.03c.06-.5-.02-1.01-.22-1.48s-.51-.89-.92-1.22Zm-23.2 6.57-.92 7.98-8.47-.96.92-7.98 8.47.96Zm-2.02 17.54-1.65-.18-2.45-6.91 4.85.54-.75 6.55Zm5.28-8.71c-.29-.19-.6-.35-.92-.48l.94-8.16c.34-.03.67-.08 1-.16l16.8-4.26-2.42 20.95-15.4-7.89Zm20.31-5.3-.72 6.18c.87.1 1.73-.13 2.41-.64a3.06 3.06 0 0 0 1.21-2.08 3.02 3.02 0 0 0-.71-2.29 3.35 3.35 0 0 0-2.19-1.17Z" fill="#FFF"/></g></g><g filter="url(#aj)"><rect rx="-.756" width="2294.658" height="4315.353" transform="scale(1 -1) rotate(82.512 6101.239 -3229.195)" fill="#000"/><g clip-path="url(#ak)"><g filter="url(#al)"><ellipse rx="1567.057" ry="1728.845" transform="matrix(.8361 .54858 .462 -.88688 2037.78 6600.25)" fill="url(#am)"/></g><g filter="url(#an)" style="mix-blend-mode:multiply"><ellipse rx="2310.795" ry="2515.153" transform="matrix(.92553 -.37866 -.27287 -.96205 1851.96 5598.3)" fill="url(#ao)"/></g><g filter="url(#ap)" style="mix-blend-mode:overlay"><path d="M1963.9 3889.33c574.96-120.85 1131.55 18.3 1579.16 344.14 482.72 350.28 799.23 885.75 928.1 1479.97 139.61 639.97 51.52 1293.4-205.37 1847.09-276.04 596.96-722.96 1028.67-1232.04 1253.98-548.23 243.64-1121.62 229.19-1618.26 9.02-535.4-236.36-937.2-689.45-1163.22-1240.66C8.02 6989.39-13.3 6333.2 148.8 5737.5c173.88-642.07 544.11-1160.25 1009.76-1491.32l1132.27 2173.45-326.93-2530.3Z" fill="url(#aq)" fill-opacity=".7" fill-rule="evenodd"/></g><g filter="url(#ar)"><ellipse rx="1814.09" ry="2087.675" transform="matrix(.98643 .16419 -.1559 .98777 -1578.37 7776.35)" fill="url(#as)"/></g><g filter="url(#at)" style="mix-blend-mode:overlay"><ellipse rx="2888.517" ry="2107.896" transform="matrix(.29584 .95524 -.91448 .40462 -1911.73 7849.63)" fill="url(#au)"/></g></g></g></g></svg>