<svg width="102.575500" height="18.638794" viewBox="0 0 102.576 18.6388" fill="none" xmlns="http://www.w3.org/2000/svg" xmlns:xlink="http://www.w3.org/1999/xlink">
	<desc>
			Created with Pixso.
	</desc>
	<defs/>
	<path id="Vector" d="M69.12 13.88L78.3 13.88L78.3 11.85L72.25 11.85C73.08 8.51 78.2 7.78 78.2 4.08C78.2 2.09 76.84 0.63 73.97 0.63C72.2 0.63 70.63 1.15 69.59 1.68L70.21 3.55C71.15 3.08 72.25 2.67 73.6 2.67C74.65 2.67 75.64 3.14 75.64 4.34C75.64 7.05 69.64 7.26 69.12 13.88ZM78.56 10.65L84.46 10.65L84.46 13.88L86.8 13.88L86.8 10.65L88.79 10.65L88.79 8.67L86.8 8.67L86.8 0.63L85.08 0.63L78.56 9.08L78.56 10.65ZM81.22 8.77L84.56 4.28C84.56 4.65 84.46 5.8 84.46 6.84L84.46 8.72L82.89 8.72C82.42 8.72 81.53 8.77 81.22 8.77Z" fill="#005893" fill-opacity="1.000000" fill-rule="nonzero"/>
	<path id="Vector" d="M2.45 11.9L2.45 7.78L3.44 7.78C4.33 7.78 5.06 7.89 5.58 8.2C6.1 8.51 6.41 9.03 6.41 9.87C6.41 11.28 5.58 11.9 3.59 11.9L2.45 11.9ZM0 13.89L3.54 13.89C7.46 13.89 8.86 12.16 8.86 9.77C8.86 8.15 8.19 7.05 6.99 6.43C6.05 5.9 4.85 5.75 3.39 5.75L2.45 5.75L2.45 2.62L7.72 2.62L8.34 0.69L0 0.69L0 13.89ZM10.48 13.89L12.78 13.89L15.75 9.61C16.32 8.83 16.74 8.04 17 7.63L17.05 7.63C17 8.2 16.95 8.93 16.95 9.66L16.95 13.83L19.3 13.83L19.3 4.44L17 4.44L14.03 8.72C13.51 9.5 13.04 10.29 12.78 10.7L12.72 10.7C12.78 10.13 12.83 9.4 12.83 8.67L12.83 4.5L10.48 4.5L10.48 13.89ZM23.31 13.89L25.71 13.89L25.71 6.43L28.53 6.43L29.16 4.44L20.45 4.44L20.45 6.43L23.31 6.43L23.31 13.89ZM29.94 18.63L32.34 18.63L32.34 13.89C32.81 14.04 33.28 14.1 33.8 14.1C36.77 14.1 38.7 12.06 38.7 9.14C38.7 6.11 36.93 4.18 33.54 4.18C32.24 4.18 30.98 4.44 29.94 4.76L29.94 18.63ZM32.34 11.85L32.34 6.32C32.7 6.22 33.02 6.17 33.44 6.17C35.16 6.17 36.25 7.1 36.25 9.14C36.25 10.97 35.37 12.11 33.59 12.11C33.12 12.11 32.76 12.01 32.34 11.85ZM40.11 13.89L42.41 13.89L45.38 9.61C45.96 8.83 46.37 8.04 46.63 7.63L46.69 7.63C46.63 8.2 46.58 8.93 46.58 9.66L46.58 13.83L48.93 13.83L48.93 4.44L46.63 4.44L43.66 8.72C43.14 9.5 42.67 10.29 42.41 10.7L42.36 10.7C42.41 10.13 42.46 9.4 42.46 8.67L42.46 4.5L40.11 4.5L40.11 13.89ZM50.81 13.89L53.21 13.89L53.21 9.97L54.62 9.97C54.88 9.97 55.14 10.23 55.45 10.86L56.65 13.89L59.21 13.89L57.49 10.29C57.17 9.66 56.86 9.3 56.39 9.14L56.39 9.09C57.17 8.62 57.28 7.26 57.75 6.58C57.9 6.37 58.11 6.27 58.42 6.27C58.58 6.27 58.79 6.27 58.95 6.37L58.95 4.34C58.69 4.24 58.22 4.18 57.95 4.18C57.12 4.18 56.6 4.5 56.23 5.02C55.45 6.17 55.45 8.15 54.3 8.15L53.21 8.15L53.21 4.44L50.81 4.44L50.81 13.89ZM64.53 14.1C65.83 14.1 67.03 13.68 67.76 13.16L67.08 11.54C66.41 11.9 65.78 12.16 64.89 12.16C63.28 12.16 62.23 11.12 62.23 9.19C62.23 7.47 63.28 6.11 65.05 6.11C65.99 6.11 66.67 6.37 67.35 6.84L67.35 4.81C66.82 4.5 65.99 4.18 64.79 4.18C61.97 4.18 59.78 6.27 59.78 9.24C59.78 11.96 61.45 14.1 64.53 14.1Z" fill="#FFFFFF" fill-opacity="1.000000" fill-rule="nonzero"/>
	<path id="Vector" d="M101.2 6.01C101.2 3.45 99.12 1.36 96.56 1.36C94 1.36 91.92 3.45 91.92 6.01C91.97 8.56 94 10.65 96.56 10.65C99.12 10.65 101.2 8.56 101.2 6.01Z" stroke="#005893" stroke-opacity="1.000000" stroke-width="2.737110"/>
	<path id="Vector" d="M99.48 6L96.92 6L96.92 3.45L96.25 3.45L96.25 6.68L99.48 6.68L99.48 6Z" fill="#005893" fill-opacity="1.000000" fill-rule="nonzero"/>
</svg>
